<svg width="1698" height="2003" viewBox="0 0 1698 2003" fill="none" xmlns="http://www.w3.org/2000/svg">
<path d="M1094.31 194.772C1439.96 299.806 1691.5 621.028 1691.5 1001C1691.5 1458.91 1326.19 1831.49 871.117 1843.21L906.203 1712.27C1273.47 1683.38 1562.5 1376.19 1562.5 1001.5C1562.5 654.856 1315.12 365.991 987.278 301.804L1094.31 194.772Z" fill="url(#paint0_linear_77_76)"/>
<path d="M248.999 616.934C177.794 727.89 136.5 859.872 136.5 1001.5C136.5 1044.81 140.364 1087.22 147.763 1128.41C134.151 1226.25 137.553 1294.64 162.3 1343.76C184.741 1388.3 224.687 1416.93 285.174 1437.33C385.148 1566.59 528.544 1660.56 693.499 1697.38V1829.18C302.484 1756.22 6.5 1413.17 6.5 1001C6.5 770.527 99.0442 561.669 248.999 409.558V616.934Z" fill="url(#paint1_linear_77_76)"/>
<path d="M849 158.5C851.091 158.5 853.18 158.509 855.268 158.524L712.052 301.74C629.756 317.811 552.525 348.037 482.999 389.783V241.939C593.683 188.472 717.841 158.5 849 158.5Z" fill="url(#paint2_linear_77_76)"/>
<path d="M892.777 552.856C1058.53 550.416 1146.08 560.303 1296.78 589.356C1436.47 674.146 1481.93 736.745 1512.78 871.356C1520.33 1004.07 1496.25 1066.58 1408.78 1159.36C1286.36 1233.62 1211.67 1254.7 1060.28 1230.36C979.657 1208.49 939.228 1191.68 884.777 1144.86V1655.86L752.277 1996.36V1450.36L745.277 1067.36C695.226 966.344 655.16 917.163 550.777 849.856C548.988 828.044 576.384 816.817 683.777 798.856L937.777 1110.86C1038.13 1188.33 1103.17 1196.93 1229.78 1169.86C1311.38 1103.01 1351.64 1062.63 1374.78 964.856C1376.13 801.887 1335.39 738.149 1208.78 660.356C1087.74 630.192 1017.17 626.426 884.777 651.356C742.253 688.572 675.407 720.995 565.277 786.856C440.344 895.387 375.461 962.621 271.777 1097.36C217.464 1234.63 205.252 1307.33 305.777 1408.36C223.559 1350 198.577 1321.21 188.777 1276.36C173.87 1166.59 189.227 1108.69 251.777 1010.86C354.436 884.493 418.373 817.547 550.777 709.356C670.117 632.029 747.32 600.402 892.777 552.856Z" fill="white"/>
<path d="M1160.5 63.0004L1102.5 101L1051.5 145.5L625 577C473.657 673.964 402.558 732.735 297.5 844.5L290 132C268.772 80.4031 243.668 59.8552 183.5 33.0004L533 29.0004C488.402 58.9029 461.902 73.2278 435 132V624.5L1024 72.5004L1078.5 46.0004L1134.5 25.0004L1207.5 14.5004L1282.5 6.50037L1160.5 63.0004Z" fill="white"/>
<path d="M1094.31 194.772C1439.96 299.806 1691.5 621.028 1691.5 1001C1691.5 1458.91 1326.19 1831.49 871.117 1843.21L906.203 1712.27C1273.47 1683.38 1562.5 1376.19 1562.5 1001.5C1562.5 654.856 1315.12 365.991 987.278 301.804L1094.31 194.772Z" stroke="url(#paint3_linear_77_76)" stroke-width="13" stroke-linejoin="round"/>
<path d="M248.999 616.934C177.794 727.89 136.5 859.872 136.5 1001.5C136.5 1044.81 140.364 1087.22 147.763 1128.41C134.151 1226.25 137.553 1294.64 162.3 1343.76C184.741 1388.3 224.687 1416.93 285.174 1437.33C385.148 1566.59 528.544 1660.56 693.499 1697.38V1829.18C302.484 1756.22 6.5 1413.17 6.5 1001C6.5 770.527 99.0442 561.669 248.999 409.558V616.934Z" stroke="url(#paint4_linear_77_76)" stroke-width="13" stroke-linejoin="round"/>
<path d="M849 158.5C851.091 158.5 853.18 158.509 855.268 158.524L712.052 301.74C629.756 317.811 552.525 348.037 482.999 389.783V241.939C593.683 188.472 717.841 158.5 849 158.5Z" stroke="url(#paint5_linear_77_76)" stroke-width="13" stroke-linejoin="round"/>
<path d="M892.777 552.856C1058.53 550.416 1146.08 560.303 1296.78 589.356C1436.47 674.146 1481.93 736.745 1512.78 871.356C1520.33 1004.07 1496.25 1066.58 1408.78 1159.36C1286.36 1233.62 1211.67 1254.7 1060.28 1230.36C979.657 1208.49 939.228 1191.68 884.777 1144.86V1655.86L752.277 1996.36V1450.36L745.277 1067.36C695.226 966.344 655.16 917.163 550.777 849.856C548.988 828.044 576.384 816.817 683.777 798.856L937.777 1110.86C1038.13 1188.33 1103.17 1196.93 1229.78 1169.86C1311.38 1103.01 1351.64 1062.63 1374.78 964.856C1376.13 801.887 1335.39 738.149 1208.78 660.356C1087.74 630.192 1017.17 626.426 884.777 651.356C742.253 688.572 675.407 720.995 565.277 786.856C440.344 895.387 375.461 962.621 271.777 1097.36C217.464 1234.63 205.252 1307.33 305.777 1408.36C223.559 1350 198.577 1321.21 188.777 1276.36C173.87 1166.59 189.227 1108.69 251.777 1010.86C354.436 884.493 418.373 817.547 550.777 709.356C670.117 632.029 747.32 600.402 892.777 552.856Z" stroke="url(#paint6_linear_77_76)" stroke-width="13" stroke-linejoin="round"/>
<path d="M1160.5 63.0004L1102.5 101L1051.5 145.5L625 577C473.657 673.964 402.558 732.735 297.5 844.5L290 132C268.772 80.4031 243.668 59.8552 183.5 33.0004L533 29.0004C488.402 58.9029 461.902 73.2278 435 132V624.5L1024 72.5004L1078.5 46.0004L1134.5 25.0004L1207.5 14.5004L1282.5 6.50037L1160.5 63.0004Z" stroke="url(#paint7_linear_77_76)" stroke-width="13" stroke-linejoin="round"/>
<defs>
<linearGradient id="paint0_linear_77_76" x1="849" y1="6.50037" x2="849" y2="1996.36" gradientUnits="userSpaceOnUse">
<stop offset="0.211538" stop-color="#050505"/>
<stop offset="0.610577" stop-color="#646566"/>
<stop offset="0.822115" stop-color="#050505"/>
</linearGradient>
<linearGradient id="paint1_linear_77_76" x1="849" y1="6.50037" x2="849" y2="1996.36" gradientUnits="userSpaceOnUse">
<stop offset="0.211538" stop-color="#050505"/>
<stop offset="0.610577" stop-color="#646566"/>
<stop offset="0.822115" stop-color="#050505"/>
</linearGradient>
<linearGradient id="paint2_linear_77_76" x1="849" y1="6.50037" x2="849" y2="1996.36" gradientUnits="userSpaceOnUse">
<stop offset="0.211538" stop-color="#050505"/>
<stop offset="0.610577" stop-color="#646566"/>
<stop offset="0.822115" stop-color="#050505"/>
</linearGradient>
<linearGradient id="paint3_linear_77_76" x1="848.79" y1="6.50037" x2="848.79" y2="1996.36" gradientUnits="userSpaceOnUse">
<stop offset="0.718428"/>
<stop offset="1" stop-color="#575757"/>
</linearGradient>
<linearGradient id="paint4_linear_77_76" x1="848.79" y1="6.50037" x2="848.79" y2="1996.36" gradientUnits="userSpaceOnUse">
<stop offset="0.718428"/>
<stop offset="1" stop-color="#575757"/>
</linearGradient>
<linearGradient id="paint5_linear_77_76" x1="848.79" y1="6.50037" x2="848.79" y2="1996.36" gradientUnits="userSpaceOnUse">
<stop offset="0.718428"/>
<stop offset="1" stop-color="#575757"/>
</linearGradient>
<linearGradient id="paint6_linear_77_76" x1="848.79" y1="6.50037" x2="848.79" y2="1996.36" gradientUnits="userSpaceOnUse">
<stop offset="0.718428"/>
<stop offset="1" stop-color="#575757"/>
</linearGradient>
<linearGradient id="paint7_linear_77_76" x1="848.79" y1="6.50037" x2="848.79" y2="1996.36" gradientUnits="userSpaceOnUse">
<stop offset="0.718428"/>
<stop offset="1" stop-color="#575757"/>
</linearGradient>
</defs>
</svg>
